<svg width="39" height="41" viewBox="0 0 39 41" fill="none" xmlns="http://www.w3.org/2000/svg">
<path d="M5 37.4688H4.272L1.344 33.0287V37.4688H0.616V31.8847H1.344L4.272 36.3167V31.8847H5V37.4688ZM8.153 37.5408C7.74233 37.5408 7.369 37.4474 7.033 37.2607C6.70233 37.0741 6.441 36.8101 6.249 36.4688C6.06233 36.1221 5.969 35.7221 5.969 35.2687C5.969 34.8207 6.065 34.4261 6.257 34.0847C6.45433 33.7381 6.721 33.4741 7.057 33.2927C7.393 33.1061 7.769 33.0127 8.185 33.0127C8.601 33.0127 8.977 33.1061 9.313 33.2927C9.649 33.4741 9.913 33.7354 10.105 34.0767C10.3023 34.4181 10.401 34.8154 10.401 35.2687C10.401 35.7221 10.2997 36.1221 10.097 36.4688C9.89967 36.8101 9.63033 37.0741 9.289 37.2607C8.94767 37.4474 8.569 37.5408 8.153 37.5408ZM8.153 36.9007C8.41433 36.9007 8.65967 36.8394 8.889 36.7167C9.11833 36.5941 9.30233 36.4101 9.441 36.1647C9.585 35.9194 9.657 35.6207 9.657 35.2687C9.657 34.9167 9.58767 34.6181 9.449 34.3727C9.31033 34.1274 9.129 33.9461 8.905 33.8287C8.681 33.7061 8.43833 33.6447 8.177 33.6447C7.91033 33.6447 7.665 33.7061 7.441 33.8287C7.22233 33.9461 7.04633 34.1274 6.913 34.3727C6.77967 34.6181 6.713 34.9167 6.713 35.2687C6.713 35.6261 6.777 35.9274 6.905 36.1727C7.03833 36.4181 7.21433 36.6021 7.433 36.7247C7.65167 36.8421 7.89167 36.9007 8.153 36.9007ZM14.219 31.8927V37.4688H13.491V31.8927H14.219ZM20.7318 33.0047C21.0731 33.0047 21.3771 33.0767 21.6438 33.2207C21.9104 33.3594 22.1211 33.5701 22.2758 33.8527C22.4304 34.1354 22.5078 34.4794 22.5078 34.8847V37.4688H21.7878V34.9887C21.7878 34.5514 21.6784 34.2181 21.4598 33.9887C21.2464 33.7541 20.9558 33.6367 20.5878 33.6367C20.2091 33.6367 19.9078 33.7594 19.6838 34.0047C19.4598 34.2447 19.3478 34.5941 19.3478 35.0527V37.4688H18.6278V34.9887C18.6278 34.5514 18.5184 34.2181 18.2998 33.9887C18.0864 33.7541 17.7958 33.6367 17.4278 33.6367C17.0491 33.6367 16.7478 33.7594 16.5238 34.0047C16.2998 34.2447 16.1878 34.5941 16.1878 35.0527V37.4688H15.4598V33.0847H16.1878V33.7167C16.3318 33.4874 16.5238 33.3114 16.7638 33.1887C17.0091 33.0661 17.2784 33.0047 17.5718 33.0047C17.9398 33.0047 18.2651 33.0874 18.5478 33.2527C18.8304 33.4181 19.0411 33.6607 19.1798 33.9807C19.3024 33.6714 19.5051 33.4314 19.7878 33.2607C20.0704 33.0901 20.3851 33.0047 20.7318 33.0047ZM23.4299 35.2607C23.4299 34.8127 23.5206 34.4207 23.7019 34.0847C23.8833 33.7434 24.1313 33.4794 24.4459 33.2927C24.7659 33.1061 25.1206 33.0127 25.5099 33.0127C25.8939 33.0127 26.2273 33.0954 26.5099 33.2607C26.7926 33.4261 27.0033 33.6341 27.1419 33.8847V33.0847H27.8779V37.4688H27.1419V36.6527C26.9979 36.9087 26.7819 37.1221 26.4939 37.2927C26.2113 37.4581 25.8806 37.5408 25.5019 37.5408C25.1126 37.5408 24.7606 37.4448 24.4459 37.2527C24.1313 37.0607 23.8833 36.7914 23.7019 36.4447C23.5206 36.0981 23.4299 35.7034 23.4299 35.2607ZM27.1419 35.2687C27.1419 34.9381 27.0753 34.6501 26.9419 34.4047C26.8086 34.1594 26.6273 33.9727 26.3979 33.8447C26.1739 33.7114 25.9259 33.6447 25.6539 33.6447C25.3819 33.6447 25.1339 33.7087 24.9099 33.8367C24.6859 33.9647 24.5073 34.1514 24.3739 34.3967C24.2406 34.6421 24.1739 34.9301 24.1739 35.2607C24.1739 35.5967 24.2406 35.8901 24.3739 36.1407C24.5073 36.3861 24.6859 36.5754 24.9099 36.7087C25.1339 36.8367 25.3819 36.9007 25.6539 36.9007C25.9259 36.9007 26.1739 36.8367 26.3979 36.7087C26.6273 36.5754 26.8086 36.3861 26.9419 36.1407C27.0753 35.8901 27.1419 35.5994 27.1419 35.2687ZM30.9162 33.0127C31.2949 33.0127 31.6255 33.0954 31.9082 33.2607C32.1962 33.4261 32.4095 33.6341 32.5482 33.8847V33.0847H33.2842V37.5648C33.2842 37.9648 33.1989 38.3194 33.0282 38.6288C32.8575 38.9434 32.6122 39.1888 32.2922 39.3648C31.9775 39.5408 31.6095 39.6288 31.1882 39.6288C30.6122 39.6288 30.1322 39.4928 29.7482 39.2208C29.3642 38.9488 29.1375 38.5781 29.0682 38.1088H29.7882C29.8682 38.3754 30.0335 38.5888 30.2842 38.7488C30.5349 38.9141 30.8362 38.9968 31.1882 38.9968C31.5882 38.9968 31.9135 38.8714 32.1642 38.6208C32.4202 38.3701 32.5482 38.0181 32.5482 37.5648V36.6447C32.4042 36.9007 32.1909 37.1141 31.9082 37.2847C31.6255 37.4554 31.2949 37.5408 30.9162 37.5408C30.5269 37.5408 30.1722 37.4448 29.8522 37.2527C29.5375 37.0607 29.2895 36.7914 29.1082 36.4447C28.9269 36.0981 28.8362 35.7034 28.8362 35.2607C28.8362 34.8127 28.9269 34.4207 29.1082 34.0847C29.2895 33.7434 29.5375 33.4794 29.8522 33.2927C30.1722 33.1061 30.5269 33.0127 30.9162 33.0127ZM32.5482 35.2687C32.5482 34.9381 32.4815 34.6501 32.3482 34.4047C32.2149 34.1594 32.0335 33.9727 31.8042 33.8447C31.5802 33.7114 31.3322 33.6447 31.0602 33.6447C30.7882 33.6447 30.5402 33.7087 30.3162 33.8367C30.0922 33.9647 29.9135 34.1514 29.7802 34.3967C29.6469 34.6421 29.5802 34.9301 29.5802 35.2607C29.5802 35.5967 29.6469 35.8901 29.7802 36.1407C29.9135 36.3861 30.0922 36.5754 30.3162 36.7087C30.5402 36.8367 30.7882 36.9007 31.0602 36.9007C31.3322 36.9007 31.5802 36.8367 31.8042 36.7087C32.0335 36.5754 32.2149 36.3861 32.3482 36.1407C32.4815 35.8901 32.5482 35.5994 32.5482 35.2687ZM38.5144 35.1087C38.5144 35.2474 38.5064 35.3941 38.4904 35.5487H34.9864C35.0131 35.9807 35.1598 36.3194 35.4264 36.5647C35.6984 36.8047 36.0264 36.9247 36.4104 36.9247C36.7251 36.9247 36.9864 36.8527 37.1944 36.7087C37.4078 36.5594 37.5571 36.3621 37.6424 36.1167H38.4264C38.3091 36.5381 38.0744 36.8821 37.7224 37.1487C37.3704 37.4101 36.9331 37.5408 36.4104 37.5408C35.9944 37.5408 35.6211 37.4474 35.2904 37.2607C34.9651 37.0741 34.7091 36.8101 34.5224 36.4688C34.3358 36.1221 34.2424 35.7221 34.2424 35.2687C34.2424 34.8154 34.3331 34.4181 34.5144 34.0767C34.6958 33.7354 34.9491 33.4741 35.2744 33.2927C35.6051 33.1061 35.9838 33.0127 36.4104 33.0127C36.8264 33.0127 37.1944 33.1034 37.5144 33.2847C37.8344 33.4661 38.0798 33.7167 38.2504 34.0367C38.4264 34.3514 38.5144 34.7087 38.5144 35.1087ZM37.7624 34.9567C37.7624 34.6794 37.7011 34.4421 37.5784 34.2447C37.4558 34.0421 37.2878 33.8901 37.0744 33.7887C36.8664 33.6821 36.6344 33.6287 36.3784 33.6287C36.0104 33.6287 35.6958 33.7461 35.4344 33.9807C35.1784 34.2154 35.0318 34.5407 34.9944 34.9567H37.7624Z" fill="#94A0B4"/>
<path d="M15.4615 15.3961C16.043 15.5899 16.6695 15.6033 17.2587 15.4347C17.848 15.2661 18.3725 14.9232 18.7634 14.4512V23.4685L8.3418 19.5404V13.0234L15.4615 15.3961Z" fill="#717E95"/>
<path fill-rule="evenodd" clip-rule="evenodd" d="M30.9223 19.5406L20.5006 23.4687V14.4513C20.8916 14.9234 21.4161 15.2662 22.0054 15.4348C22.5946 15.6034 23.2211 15.59 23.8026 15.3962L30.9223 13.0236V19.5406ZM27.7228 17.7593C27.9414 17.6866 28.1221 17.5299 28.2252 17.3239C28.3283 17.1178 28.3454 16.8793 28.2726 16.6607C28.1998 16.4421 28.0432 16.2614 27.8371 16.1583C27.6311 16.0552 27.3926 16.0382 27.174 16.111L23.2659 17.4137C23.0473 17.4865 22.8665 17.6431 22.7634 17.8491C22.6604 18.0552 22.6433 18.2937 22.7161 18.5123C22.7889 18.7309 22.9455 18.9116 23.1516 19.0147C23.3576 19.1178 23.5961 19.1348 23.8147 19.062L27.7228 17.7593ZM19.9162 0.0477447C19.7322 -0.0159149 19.5322 -0.0159149 19.3482 0.0477447L8.0598 3.95586L8.03983 3.96194C7.88797 4.01824 7.75497 4.11603 7.65596 4.24419L4.19077 8.57613C4.10324 8.68534 4.04341 8.81409 4.01637 8.95141C3.98932 9.08873 3.99587 9.23055 4.03544 9.3648C4.07502 9.49904 4.14645 9.62174 4.24366 9.72243C4.34086 9.82312 4.46097 9.89882 4.59374 9.9431L16.3181 13.8512C16.4956 13.9102 16.6875 13.9103 16.8651 13.8515C17.0427 13.7926 17.1966 13.678 17.3038 13.5247L19.6322 10.1984L21.9597 13.5247C22.0669 13.6782 22.2209 13.7929 22.3987 13.8518C22.5765 13.9106 22.7686 13.9104 22.9463 13.8512L34.6706 9.9431C34.8034 9.89892 34.9236 9.82329 35.0209 9.72264C35.1182 9.62199 35.1898 9.49931 35.2294 9.36506C35.2691 9.2308 35.2757 9.08894 35.2487 8.95157C35.2217 8.81421 35.162 8.6854 35.0744 8.57613L31.6092 4.24419C31.5056 4.11021 31.3649 4.00964 31.2045 3.95499L19.9162 0.0477447ZM19.6322 7.76584L28.2674 4.77657L19.6322 1.78729L10.997 4.77657L19.6322 7.76584Z" fill="#717E95"/>
</svg>
